<svg xmlns="http://www.w3.org/2000/svg" xmlns:xlink="http://www.w3.org/1999/xlink" viewBox="0,0,256,256" width="48px" height="48px" fill-rule="nonzero"><g fill-opacity="0" fill="#dddddd" fill-rule="nonzero" stroke="none" stroke-width="1" stroke-linecap="butt" stroke-linejoin="miter" stroke-miterlimit="10" stroke-dasharray="" stroke-dashoffset="0" font-family="none" font-weight="none" font-size="none" text-anchor="none" style="mix-blend-mode: normal"><path d="M0,256v-256h256v256z" id="bgRectangle"></path></g><g fill="none" fill-rule="nonzero" stroke="none" stroke-width="1" stroke-linecap="butt" stroke-linejoin="miter" stroke-miterlimit="10" stroke-dasharray="" stroke-dashoffset="0" font-family="none" font-weight="none" font-size="none" text-anchor="none" style="mix-blend-mode: normal"><g transform="scale(5.33333,5.33333)"><path d="M36,12v5h1v25c0,0.55 -0.45,1 -1,1h-25c-2.76,0 -5,-2.24 -5,-5v-28c0,-2.76 2.24,-5 5,-5h21c2.76,0 5,2.24 5,5v2z" fill="#6be3a2"></path><path d="M43,22v1h-1v16c0,1.66 -1.34,3 -3,3v1h-22c-2.76,0 -5,-2.24 -5,-5v-16c0,-2.76 2.24,-5 5,-5h21c2.76,0 5,2.24 5,5z" fill="#6be3a2"></path><path d="M29,22h-17c-0.553,0 -1,-0.448 -1,-1c0,-0.552 0.447,-1 1,-1h17c0.553,0 1,0.448 1,1c0,0.552 -0.447,1 -1,1z" fill="#324561"></path><path d="M29,16h-17c-0.553,0 -1,-0.448 -1,-1c0,-0.552 0.447,-1 1,-1h17c0.553,0 1,0.448 1,1c0,0.552 -0.447,1 -1,1z" fill="#324561"></path><path d="M29,35h-5c-0.553,0 -1,-0.448 -1,-1c0,-0.552 0.447,-1 1,-1h5c0.553,0 1,0.448 1,1c0,0.552 -0.447,1 -1,1z" fill="#324561"></path><path d="M29,29h-5c-0.553,0 -1,-0.448 -1,-1c0,-0.552 0.447,-1 1,-1h5c0.553,0 1,0.448 1,1c0,0.552 -0.447,1 -1,1z" fill="#324561"></path><path d="M18,36h-5c-1.103,0 -2,-0.961 -2,-2.143v-5.714c0,-1.182 0.897,-2.143 2,-2.143h5c1.103,0 2,0.961 2,2.143v5.714c0,1.182 -0.897,2.143 -2,2.143zM13.009,28c0.025,0.004 -0.009,0.054 -0.009,0.143v5.714c0,0.098 0.041,0.148 0.052,0.156l4.939,-0.013c-0.025,-0.004 0.009,-0.054 0.009,-0.143v-5.714c0,-0.098 -0.041,-0.148 -0.052,-0.156z" fill="#324561"></path><path d="M39,43c-2.206,0 -4,-1.794 -4,-4v-27c0,-0.552 0.447,-1 1,-1c0.553,0 1,0.448 1,1v27c0,1.103 0.897,2 2,2c1.103,0 2,-0.897 2,-2v-16c0,-0.552 0.447,-1 1,-1c0.553,0 1,0.448 1,1v16c0,2.206 -1.794,4 -4,4z" fill="#324561"></path></g></g></svg>