<svg xmlns="http://www.w3.org/2000/svg" viewBox="0 0 889.97998 1001.32748">
  <defs>
    <style>
      .cls-1 {
        fill: #71e987;
      }
    </style>
  </defs>
  <title>GreenOnlyLogo</title>
  <g id="Ebene_2" data-name="Ebene 2">
    <g id="Ebene_1-2" data-name="Ebene 1">
      <g>
        <path class="cls-1" d="M373.5,364.4975h-92v-61.5a10.51148,10.51148,0,0,1,10.5-10.5h71a10.51148,10.51148,0,0,1,10.5,10.5Z"/>
        <path class="cls-1" d="M254.66992,388.4975H401.33008A5.16992,5.16992,0,0,1,406.5,393.66742v178.6601a5.17,5.17,0,0,1-5.17,5.17H254.67a5.17,5.17,0,0,1-5.17-5.17V393.66742A5.16992,5.16992,0,0,1,254.66992,388.4975Z"/>
        <path class="cls-1" d="M847.41992,219.17749l-359.86987-207.77a85.09727,85.09727,0,0,0-85.12012,0l-359.86987,207.77A85.1246,85.1246,0,0,0,0,292.89746v415.54a85.12453,85.12453,0,0,0,42.56006,73.72l359.86987,207.77a85.14522,85.14522,0,0,0,85.12012,0l359.86987-207.77a85.12453,85.12453,0,0,0,42.56006-73.72v-415.54A85.1246,85.1246,0,0,0,847.41992,219.17749ZM680.5,527.4975a60,60,0,0,1-120,0v-73a30,30,0,1,0-60,0v222a48.05092,48.05092,0,0,1-48,48h-87a48.05092,48.05092,0,0,1-48-48v-75H254.66992a29.19589,29.19589,0,0,1-29.16992-29.17v-178.66a29.19583,29.19583,0,0,1,29.16992-29.17H257.5v-61.5a34.54337,34.54337,0,0,1,34.5-34.5h71a34.54337,34.54337,0,0,1,34.5,34.5v61.5h3.83008a29.19583,29.19583,0,0,1,29.16992,29.17v178.66a29.19589,29.19589,0,0,1-29.16992,29.17H341.5v75a24.03189,24.03189,0,0,0,24,24h87a24.03189,24.03189,0,0,0,24-24v-222a54,54,0,1,1,108,0v73a36,36,0,0,0,72,0v-90a12,12,0,1,1,24,0Z"/>
      </g>
    </g>
  </g>
</svg>
